<svg xmlns="http://www.w3.org/2000/svg" viewBox="0 0 825 825">
  <path fill="#1e3d5a" fill-rule="evenodd" d="M 589.00 299.50 L 570.50 260.00 L 550.50 230.00 L 518.00 197.50 L 494.00 180.50 L 468.00 166.50 L 426.00 152.50 L 359.50 147.00 L 372.00 144.50 L 429.00 146.50 L 462.00 154.50 L 501.00 173.50 L 529.00 194.50 L 556.50 225.00 L 578.50 264.00 L 589.00 299.50 Z M 427.00 655.50 L 391.00 655.50 L 346.00 648.50 L 299.00 631.50 L 262.00 610.50 L 238.00 591.50 L 195.50 544.00 L 170.50 500.00 L 154.50 452.00 L 148.50 406.00 L 151.50 355.00 L 164.50 308.00 L 182.50 271.00 L 205.50 239.00 L 237.00 209.50 L 274.00 187.50 L 318.00 173.50 L 345.00 169.50 L 384.00 170.50 L 410.00 175.50 L 445.00 187.50 L 468.00 199.50 L 493.00 218.50 L 522.50 250.00 L 538.50 277.00 L 537.00 279.50 L 497.00 246.50 L 461.00 229.50 L 417.00 219.50 L 380.00 219.50 L 344.00 226.50 L 315.00 238.50 L 276.00 266.50 L 255.50 290.00 L 234.50 327.00 L 224.50 364.00 L 222.50 405.00 L 230.50 450.00 L 247.50 489.00 L 273.50 525.00 L 309.00 556.50 L 340.00 574.50 L 371.00 586.50 L 407.00 593.50 L 450.00 593.50 L 486.00 586.50 L 509.00 578.50 L 549.00 556.50 L 573.00 537.50 L 600.50 507.00 L 622.50 472.00 L 634.50 445.00 L 643.50 413.00 L 647.50 383.00 L 647.50 346.00 L 640.50 304.00 L 629.50 272.00 L 607.00 229.50 L 636.50 272.00 L 651.50 305.00 L 662.50 340.00 L 667.50 373.00 L 667.50 417.00 L 662.50 449.00 L 648.50 495.00 L 621.50 544.00 L 581.00 589.50 L 537.00 621.50 L 478.00 646.50 L 427.00 655.50 Z M 606.00 229.50 L 606.00 229.50 Z"/>
</svg>
